<?xml version="1.0" encoding="UTF-8"?>
<svg width="128" height="128" viewBox="0 0 128 128" xmlns="http://www.w3.org/2000/svg">
  <!-- 背景圆形 -->
  <circle cx="64" cy="64" r="60" fill="#5A67D8" />
  
  <!-- 外部光环效果 -->
  <circle cx="64" cy="64" r="56" fill="none" stroke="#8DA2FB" stroke-width="2" stroke-opacity="0.6" />
  <circle cx="64" cy="64" r="52" fill="none" stroke="#8DA2FB" stroke-width="2" stroke-opacity="0.4" />
  
  <!-- 中心灯泡/想法符号 -->
  <path d="M64 24 C48 24 36 36 36 52 C36 60 40 68 48 72 L48 88 C48 92 52 96 56 96 L72 96 C76 96 80 92 80 88 L80 72 C88 68 92 60 92 52 C92 36 80 24 64 24 Z" fill="#FFFFFF" />
  
  <!-- 灯泡底部 -->
  <rect x="56" y="80" width="16" height="16" rx="2" ry="2" fill="#FFFFFF" />
  
  <!-- 灯泡内部线条 - 代表思维 -->
  <path d="M52 52 L76 52 M52 60 L76 60 M52 68 L76 68" stroke="#5A67D8" stroke-width="4" stroke-linecap="round" />
  
  <!-- 光线效果 - 代表创意的发散 -->
  <path d="M64 16 L64 8 M87 24 L92 16 M104 47 L112 42 M41 24 L36 16 M24 47 L16 42" stroke="#FFD700" stroke-width="3" stroke-linecap="round" />
</svg> 